<svg width="316" height="61" viewBox="0 0 316 61" fill="none" xmlns="http://www.w3.org/2000/svg">
<path fill-rule="evenodd" clip-rule="evenodd" d="M277 33.5467C277 22.737 285.649 14 296.11 14C306.601 14 315.25 22.737 315.25 33.5467C315.25 38.9939 313.353 44.0509 310.231 48.3372C306.787 53.0653 302.542 57.1847 297.764 60.4182C296.671 61.1655 295.684 61.2219 294.484 60.4182C289.678 57.1847 285.433 53.0653 282.019 48.3372C278.894 44.0509 277 38.9939 277 33.5467ZM289.812 34.1555C289.812 37.7767 292.641 40.6248 296.11 40.6248C299.582 40.6248 302.438 37.7767 302.438 34.1555C302.438 30.5624 299.582 27.5757 296.11 27.5757C292.641 27.5757 289.812 30.5624 289.812 34.1555Z" fill="#AE55F4"/>
<path d="M157 32.304C157 28.6347 157.683 25.4133 159.048 22.64C160.456 19.8667 162.355 17.7333 164.744 16.24C167.133 14.7467 169.8 14 172.744 14C175.261 14 177.459 14.512 179.336 15.536C181.256 16.56 182.728 17.904 183.752 19.568V14.512H194.696V50.224H183.752V45.168C182.685 46.832 181.192 48.176 179.272 49.2C177.395 50.224 175.197 50.736 172.68 50.736C169.779 50.736 167.133 49.9893 164.744 48.496C162.355 46.96 160.456 44.8053 159.048 42.032C157.683 39.216 157 35.9733 157 32.304ZM183.752 32.368C183.752 29.6373 182.984 27.4827 181.448 25.904C179.955 24.3253 178.12 23.536 175.944 23.536C173.768 23.536 171.912 24.3253 170.376 25.904C168.883 27.44 168.136 29.5733 168.136 32.304C168.136 35.0347 168.883 37.2107 170.376 38.832C171.912 40.4107 173.768 41.2 175.944 41.2C178.12 41.2 179.955 40.4107 181.448 38.832C182.984 37.2533 183.752 35.0987 183.752 32.368Z" fill="#AE55F4"/>
<path d="M208.944 21.336C210.224 19.3733 211.824 17.8373 213.744 16.728C215.664 15.576 217.797 15 220.144 15V26.584H217.136C214.405 26.584 212.357 27.1813 210.992 28.376C209.627 29.528 208.944 31.576 208.944 34.52V51.096H198V15.384H208.944V21.336Z" fill="#AE55F4"/>
<path d="M90.84 31.792C90.84 32.816 90.776 33.8827 90.648 34.992H65.88C66.0507 37.2107 66.7547 38.9173 67.992 40.112C69.272 41.264 70.8293 41.84 72.664 41.84C75.3947 41.84 77.2933 40.688 78.36 38.384H90.008C89.4107 40.7307 88.3227 42.8427 86.744 44.72C85.208 46.5973 83.2667 48.0693 80.92 49.136C78.5733 50.2027 75.9493 50.736 73.048 50.736C69.5493 50.736 66.4347 49.9893 63.704 48.496C60.9733 47.0027 58.84 44.8693 57.304 42.096C55.768 39.3227 55 36.08 55 32.368C55 28.656 55.7467 25.4133 57.24 22.64C58.776 19.8667 60.9093 17.7333 63.64 16.24C66.3707 14.7467 69.5067 14 73.048 14C76.504 14 79.576 14.7253 82.264 16.176C84.952 17.6267 87.0427 19.696 88.536 22.384C90.072 25.072 90.84 28.208 90.84 31.792ZM79.64 28.912C79.64 27.0347 79 25.5413 77.72 24.432C76.44 23.3227 74.84 22.768 72.92 22.768C71.0853 22.768 69.528 23.3013 68.248 24.368C67.0107 25.4347 66.2427 26.9493 65.944 28.912H79.64Z" fill="#AE55F4"/>
<path d="M51.848 6.07202V51H40.904V24.056L30.856 51H22.024L11.912 23.992V51H0.968018V6.07202H13.896L26.504 37.176L38.984 6.07202H51.848Z" fill="#AE55F4"/>
<path d="M118.832 32.368C118.832 28.656 119.579 25.4133 121.072 22.64C122.608 19.8667 124.72 17.7333 127.408 16.24C130.139 14.7467 133.253 14 136.752 14C141.232 14 144.965 15.1733 147.952 17.52C150.981 19.8667 152.965 23.1733 153.904 27.44H142.256C141.275 24.7093 139.376 23.344 136.56 23.344C134.555 23.344 132.955 24.1333 131.76 25.712C130.565 27.248 129.968 29.4667 129.968 32.368C129.968 35.2693 130.565 37.5093 131.76 39.088C132.955 40.624 134.555 41.392 136.56 41.392C139.376 41.392 141.275 40.0267 142.256 37.296H153.904C152.965 41.4773 150.981 44.7627 147.952 47.152C144.923 49.5413 141.189 50.736 136.752 50.736C133.253 50.736 130.139 49.9893 127.408 48.496C124.72 47.0027 122.608 44.8693 121.072 42.096C119.579 39.3227 118.832 36.08 118.832 32.368Z" fill="#AE55F4"/>
<path d="M104.632 21.336C105.912 19.3733 107.512 17.8373 109.432 16.728C111.352 15.576 113.485 15 115.832 15V26.584H112.824C110.093 26.584 108.045 27.1813 106.68 28.376C105.315 29.528 104.632 31.576 104.632 34.52V51.096H93.688V15.384H104.632V21.336Z" fill="#AE55F4"/>
<path d="M229.528 11.84C227.608 11.84 226.029 11.2853 224.792 10.176C223.597 9.024 223 7.616 223 5.952C223 4.24533 223.597 2.83733 224.792 1.728C226.029 0.576004 227.608 0 229.528 0C231.405 0 232.941 0.576004 234.136 1.728C235.373 2.83733 235.992 4.24533 235.992 5.952C235.992 7.616 235.373 9.024 234.136 10.176C232.941 11.2853 231.405 11.84 229.528 11.84ZM234.968 15.552V51.264H224.024V15.552H234.968Z" fill="#AE55F4"/>
<path d="M239 32.368C239 28.656 239.747 25.4133 241.24 22.64C242.776 19.8667 244.888 17.7333 247.576 16.24C250.307 14.7467 253.421 14 256.92 14C261.4 14 265.133 15.1733 268.12 17.52C271.149 19.8667 273.133 23.1733 274.072 27.44H262.424C261.443 24.7093 259.544 23.344 256.728 23.344C254.723 23.344 253.123 24.1333 251.928 25.712C250.733 27.248 250.136 29.4667 250.136 32.368C250.136 35.2693 250.733 37.5093 251.928 39.088C253.123 40.624 254.723 41.392 256.728 41.392C259.544 41.392 261.443 40.0267 262.424 37.296H274.072C273.133 41.4773 271.149 44.7627 268.12 47.152C265.091 49.5413 261.357 50.736 256.92 50.736C253.421 50.736 250.307 49.9893 247.576 48.496C244.888 47.0027 242.776 44.8693 241.24 42.096C239.747 39.3227 239 36.08 239 32.368Z" fill="#AE55F4"/>
</svg>
