<svg width="18" height="16" viewBox="0 0 18 16" fill="none" xmlns="http://www.w3.org/2000/svg">
<path d="M2.4 0H8.4V1.23077L2.4 1.23077V0Z" fill="#D0D0D0"/>
<path d="M9.6 9.23077C9.6 8.21117 10.4059 7.38462 11.4 7.38462C12.3941 7.38462 13.2 8.21117 13.2 9.23077C13.2 10.2504 12.3941 11.0769 11.4 11.0769C10.4059 11.0769 9.6 10.2504 9.6 9.23077Z" fill="#D0D0D0"/>
<path fill-rule="evenodd" clip-rule="evenodd" d="M0 14.1538C0 15.1734 0.805888 16 1.8 16L16.2 16C17.1941 16 18 15.1734 18 14.1538L18 4.30769C18 3.28809 17.1941 2.46154 16.2 2.46154H1.8C0.805889 2.46154 0 3.28809 0 4.30769V14.1538ZM11.4 6.15385C9.74314 6.15385 8.4 7.53143 8.4 9.23077C8.4 10.9301 9.74314 12.3077 11.4 12.3077C13.0568 12.3077 14.4 10.9301 14.4 9.23077C14.4 7.53143 13.0568 6.15385 11.4 6.15385Z" fill="#D0D0D0"/>
</svg>
